<?xml version="1.0" standalone="no"?><!DOCTYPE svg PUBLIC "-//W3C//DTD SVG 1.1//EN" "http://www.w3.org/Graphics/SVG/1.1/DTD/svg11.dtd"><svg t="1539918101926" class="icon" style="" viewBox="0 0 1024 1024" version="1.1" xmlns="http://www.w3.org/2000/svg" p-id="1879" xmlns:xlink="http://www.w3.org/1999/xlink" width="128" height="128"><defs><style type="text/css"></style></defs><path d="M259.52 802.368c4.032 1.6 8.064 3.392 12.16 4.864 4.8 4.608 5.568 11.52 10.88 15.872 10.88 2.24 15.616-1.472 19.328-9.728-1.408-25.472-13.312-54.72-25.408-71.36-4.352-4.864-8.832-9.728-13.312-14.528-6.912-17.28-7.168-30.72-15.744-44.864-7.168-11.776-18.048-22.016-21.76-37.504-6.464-26.624 10.752-49.344 21.76-60.48 36.992-37.376 101.76-60.032 152.512-82.368 17.344-7.616 34.688-15.296 51.968-22.976C450.944 505.152 432.512 508.224 427.776 528.896c17.536 29.952 77.952 1.92 93.248-9.664C550.528 496.768 562.56 453.952 594.752 434.496c25.024-8.448 49.984-16.96 75.008-25.408 43.648-19.392 87.232-38.656 130.88-58.048 26.24-12.544 83.968-22.528 77.376-62.912-23.872-14.848-70.976-3.456-96.768-18.176-47.616-27.2-70.72-85.312-130.752-101.632-0.384-0.832-0.768-1.6-1.28-2.368 9.728-15.104 55.36-69.568 28.992-89.6C636.352 68.48 622.528 115.84 579.136 107.712c-16.64-3.072-28.416-14.464-42.432-20.544-35.2-15.424-64.512-25.92-117.376-25.408C401.984 64.96 384.64 68.16 367.296 71.424c-45.76 14.016-82.816 39.808-116.224 66.56C229.184 155.52 207.168 180.608 190.592 203.328 182.528 215.872 174.464 228.352 166.336 240.832 153.344 248.96 136.256 248.192 124.032 255.424c-48.96 28.864-71.168 74.176-90.752 133.12l0 4.8c6.912-5.376 72.768-55.808 93.184-27.84C122.432 393.344 118.336 421.248 114.368 449.024 109.696 445.952 107.328 444.032 100.992 445.376 99.008 447.424 96.96 449.408 94.912 451.456c-0.384 3.2-0.832 6.464-1.216 9.664C96.576 463.168 99.392 465.152 102.208 467.2c7.232-0.704 7.872-1.984 12.16-4.8 0.32 70.336 13.504 120.384 19.264 176.64-19.712 4.352-34.944 15.744-50.752 24.256-6.272-3.392-8.576-3.264-15.744-1.152-3.2 5.376-3.648 9.024-2.432 16.896-5.824 2.368-11.712-1.024-20.608 1.28-29.312 7.488-13.824 30.656-4.8 43.52-0.384 0.896-0.832 1.6-1.216 2.368 2.112 19.776 2.752 31.232 7.232 44.864 41.728-6.4 19.328-73.728 107.712-65.344-34.24 54.848-48.256 90.24-36.288 164.608 2.048 0.896 4.032 1.6 6.016 2.368 3.648-0.384 7.296-0.768 10.88-1.152 4.48-6.4 8.704-11.904 9.728-21.76l1.152 0c1.344 5.76 1.408 6.144 6.08 8.384 3.264 0.384 6.464 0.768 9.664 1.152 1.216-1.984 2.432-3.904 3.648-6.016l0-8.512c-2.048-1.984-4.032-3.904-6.016-6.016-7.872 0.384-9.6 1.6-12.16 7.232l-1.28 0c0.448-3.648 0.832-7.232 1.28-10.88 12.032 1.728 16.896-1.6 24.192-7.232 1.6-5.632 3.072-11.776 1.28-18.112-2.816-3.648-5.696-7.36-8.512-10.88L160.32 798.912c6.656-2.752 9.92-1.152 13.312-7.232 3.264-6.72 0.384-12.224-4.8-14.656 3.968-2.88 8-5.632 12.032-8.512-1.152 5.376-1.472 9.344 1.28 13.376 2.176 3.904 3.328 4.096 7.232 6.016 8-0.768 8.64-2.624 13.312-6.016l0-13.376c10.88 4.864 21.824 9.728 32.704 14.656C234.56 789.12 233.664 795.136 232.96 801.28c2.752 2.368 5.632 4.864 8.384 7.232C249.536 812.352 256.448 807.616 259.52 802.368zM649.28 257.792l10.88 0c2.496 2.816 4.864 5.696 7.36 8.448 0.384 3.648 0.768 7.232 1.152 10.88-2.496 2.432-4.864 4.864-7.232 7.232l-12.096 0c-2.368-2.048-4.864-3.968-7.232-6.016-0.384-4.032-0.768-8.064-1.28-12.096C643.648 263.488 646.528 260.608 649.28 257.792zM468.928 111.36c3.328-2.048 6.528-3.968 9.728-6.016C487.936 105.792 491.52 108.224 495.552 113.792l0 12.032C493.184 128.704 490.688 131.52 488.32 134.336 470.784 138.56 464.448 126.08 468.928 111.36zM207.552 745.472c-32-30.272-39.424-64.896-98.112-55.616C100.736 647.872 141.888 633.6 172.416 627.008c1.216-125.568 29.312-203.52 76.224-279.616L248.64 341.312c-12.096-8.96-23.936-8.96-40-3.584C219.52 318.4 240.128 304.64 263.168 297.728 272.064 296.576 280.96 295.296 289.856 294.144 295.04 288.064 300.288 282.048 305.536 275.968l53.248-47.168C384.768 209.152 413.504 190.528 445.952 177.92c12.032-2.816 24.192-5.632 36.288-8.448C529.024 169.6 532.096 192.064 560.96 199.68c22.784 6.08 34.56-11.968 54.464-10.88 1.6 2.432 3.264 4.864 4.864 7.296-3.52 39.36-84.928 101.568-113.792 122.24C492.16 328.512 471.168 338.816 462.848 354.624c-18.304 34.88-5.12 48-43.584 66.624C412.928 424.256 403.392 429.696 393.856 426.048 392.256 424.384 390.656 422.848 389.12 421.248c3.392-9.088 6.208-16.448 6.016-29.056C394.304 391.744 393.536 391.296 392.704 390.912 369.664 410.304 346.688 429.696 323.712 449.024c-35.136 28.352-67.84 72.128-93.248 110.144-12.736 19.2-38.272 54.464-31.488 89.6 8.32 43.648 74.944 54.72 61.76 115.008C242.112 775.744 218.88 756.352 207.552 745.472zM674.624 141.568c-4.224 6.208-5.12 8.96-2.368 16.96 2.368 0.832 4.864 1.6 7.232 2.496 7.36-3.712 15.36-12.928 3.648-18.176C680.384 142.4 677.504 142.016 674.624 141.568zM750.848 170.688c7.488-3.712 15.36-12.928 3.648-18.176-2.752-0.448-5.632-0.832-8.384-1.216-3.008 4.032-6.4 6.656-3.648 13.312C744.896 168.704 746.496 168.832 750.848 170.688zM716.992 187.648c2.112-8.96 0.128-13.952-7.232-16.96-3.136-0.384-6.4-0.768-9.6-1.216-1.984 2.432-4.096 4.864-6.144 7.296-0.384 3.648-0.768 7.232-1.152 10.88 4.736 4.864 6.72 7.168 16.896 7.232L716.992 187.648zM816.256 184c-0.64-7.936-2.24-9.216-6.016-13.312-3.648-0.384-7.232-0.768-10.88-1.216-2.112 2.432-4.096 4.864-6.016 7.296-0.512 3.2-0.896 6.464-1.28 9.664 4.48 4.672 6.272 6.976 15.616 7.296C810.624 190.464 813.504 187.2 816.256 184zM876.736 229.952c4.864-4.416 7.104-7.616 10.88-13.312-0.64-9.344-3.264-11.52-7.104-16.96-4.608-0.832-9.024-1.536-13.376-2.432-2.368 1.216-4.864 2.432-7.232 3.648-4.48 7.232-5.376 13.568-2.368 22.976C863.104 227.904 866.112 230.144 876.736 229.952zM779.904 221.504c1.728-4.032 1.024-6.656-1.152-9.664-3.008-4.416-4.48-4.864-12.096-4.8-1.6 1.984-3.136 3.968-4.864 6.016C754.624 225.92 775.232 233.344 779.904 221.504zM500.416 226.368C502.848 225.92 505.28 225.472 507.712 225.152 510.656 220.352 511.36 218.688 510.08 211.84 506.496 210.944 502.848 210.176 499.2 209.344 497.536 210.944 496 212.608 494.336 214.272 494.72 217.024 495.168 219.904 495.552 222.72 497.216 223.872 498.752 225.152 500.416 226.368zM986.88 297.728c-1.152 1.984-2.368 4.032-3.648 6.016-0.384 1.28-0.768 2.432-1.152 3.648 0.384 1.216 0.768 2.432 1.152 3.648 3.968 2.56 4.864 3.52 12.096 3.648 1.6-2.048 3.264-4.032 4.864-6.08C999.36 299.776 996.864 297.536 986.88 297.728zM883.968 337.728c-2.368 3.2-4.864 6.464-7.232 9.664 2.24 4.992 3.136 6.656 7.232 9.664 2.88-0.384 5.76-0.768 8.512-1.216 4.096-6.08 5.632-13.312-2.368-16.96C888.128 338.496 886.144 338.112 883.968 337.728zM84.032 382.464C78.72 387.392 75.328 389.632 74.368 399.424c3.968 6.912 4.8 9.6 12.096 13.312C90.944 411.968 95.36 411.072 99.84 410.304 109.568 397.184 106.688 380.928 84.032 382.464zM834.368 449.024c0.512 0.832 0.896 1.6 1.28 2.432 4.096 2.56 5.76 3.648 13.376 3.648l1.28 0c3.264-4.672 4.736-5.632 4.736-14.528-0.896-1.28-1.6-2.432-2.368-3.648-3.648-0.832-7.36-1.6-10.88-2.432C836.992 438.976 834.752 439.616 834.368 449.024zM58.688 442.944C58.24 442.176 57.856 441.344 57.408 440.576c-1.6-0.384-3.2-0.832-4.864-1.28C51.392 440.128 50.176 440.96 48.96 441.728l0 7.296c2.816 0.384 5.632 0.832 8.448 1.216C57.856 447.808 58.24 445.376 58.688 442.944zM667.52 441.728c-4.864-0.384-9.728-0.768-14.656-1.216-5.376 4.48-8.768 6.592-12.096 13.312-0.128 13.504 3.136 15.936 8.512 22.976 6.4 1.856 13.504 3.584 19.392 0 5.888-2.688 8.128-6.336 10.88-12.096-0.384-3.968-0.768-8.064-1.28-12.096C675.968 446.72 673.344 444.096 667.52 441.728zM42.88 478.08 42.88 468.416c-2.688-4.864-4.864-5.76-12.096-6.016C30.016 462.72 29.184 463.168 28.352 463.552 16.768 478.08 36.16 493.184 42.88 478.08zM82.816 502.272c3.2 0.384 6.464 0.832 9.664 1.28 1.6-2.432 3.2-4.928 4.864-7.296C97.792 494.208 98.176 492.16 98.56 490.176 93.824 485.12 93.312 482.88 82.816 482.88c-1.6 2.048-3.2 4.032-4.864 6.08C75.008 495.36 77.76 500.032 82.816 502.272zM692.864 512c2.368-0.448 4.736-0.832 7.232-1.28 1.152-0.384 2.368-0.768 3.648-1.216 0.384-3.648 0.768-7.232 1.152-10.88L704.896 497.408c-3.648-1.6-7.232-3.2-10.88-4.8C686.528 497.792 683.648 506.112 692.864 512zM44.096 515.584c2.176 4.8 2.88 5.76 8.448 7.296 3.008 0.896 4.224 0.384 7.296-1.216C61.888 519.68 63.872 517.632 65.92 515.584L65.92 508.352C63.488 506.304 61.056 504.32 58.688 502.272 55.808 501.888 52.992 501.504 50.176 501.12 47.744 503.936 45.312 506.688 42.88 509.504 43.264 511.552 43.712 513.6 44.096 515.584zM61.056 531.328C57.024 541.376 56.256 547.072 59.84 557.952c4.864 2.816 9.664 5.632 14.528 8.448 6.976-0.256 10.88-1.344 14.528-4.864 20.224-10.432 4.672-37.888-18.176-36.288C67.52 527.296 64.32 529.344 61.056 531.328zM422.912 562.816c0.384-3.264 0.832-6.464 1.216-9.664C421.76 551.104 419.264 549.12 416.896 547.072 413.312 546.688 409.6 546.304 406.016 545.856 401.152 550.656 398.784 552.64 398.72 562.816 401.152 565.248 403.584 567.68 406.016 570.048l9.664 0C418.112 567.68 420.544 565.248 422.912 562.816zM320.064 601.6c3.648 0.256 7.232 0.768 10.88 1.152C333.312 600 335.808 597.12 338.24 594.24c0.384-3.136 0.832-6.528 1.28-9.6C336.64 582.144 333.76 579.776 330.944 577.344c-3.648-0.512-7.232-0.896-10.88-1.28C315.456 580.48 312.96 582.592 311.616 590.656 313.984 596.224 314.56 598.848 320.064 601.6zM558.464 580.864l0 6.144c3.2 1.6 4.224 2.112 9.728 2.368 0.768-1.28 1.6-2.368 2.432-3.648C571.008 583.744 571.456 581.76 571.84 579.776 570.624 578.944 569.344 578.112 568.192 577.344 565.76 576.896 563.392 576.512 560.96 576.128 560.128 577.728 559.296 579.392 558.464 580.864zM412.032 601.6C411.84 589.696 408.448 587.392 403.584 580.864 398.336 580.16 393.088 579.392 387.84 578.496 384.64 580.48 381.376 582.592 378.176 584.64c-2.176 5.888-3.84 10.112-3.648 19.392C378.688 608.64 380.16 612.096 386.624 614.848 392.448 617.6 400.192 615.744 403.584 612.352 408.256 609.856 409.856 606.4 412.032 601.6zM289.856 591.872c-0.896-7.104-1.92-8.512-7.232-11.008C280.512 580.48 278.528 580.16 276.48 579.776 275.712 580.16 274.88 580.48 274.112 580.864 271.616 584.896 270.592 585.856 270.464 593.152l0 1.152c4.032 3.008 6.72 6.4 13.312 3.648C285.76 595.904 287.808 593.856 289.856 591.872zM94.912 584.64c-3.584-0.384-7.232-0.896-10.88-1.28-5.12 4.736-8.256 6.848-9.664 15.744C76.8 603.136 79.168 607.104 81.664 611.264l13.312 0c5.824-2.752 6.4-5.76 9.664-10.88C103.936 591.616 101.504 587.456 94.912 584.64zM40.512 589.376C38.848 591.488 37.248 593.472 35.648 595.52 35.2 598.4 34.816 601.152 34.432 604.032c6.208 4.224 8.96 5.12 16.96 2.368C52.16 604.032 52.992 601.6 53.76 599.104 50.816 592.384 49.792 590.016 40.512 589.376zM100.992 631.744c5.568 3.52 10.304 5.248 14.528-1.28 0.384-2.752 0.832-5.632 1.216-8.384C113.472 620.48 110.272 618.88 107.072 617.28 104.64 619.264 102.208 621.376 99.84 623.232 100.224 626.112 100.544 628.992 100.992 631.744zM65.92 637.76c2.688 4.992 4.48 6.4 8.448 9.728 1.984-0.384 4.032-0.768 6.08-1.28 1.984-1.856 3.968-3.904 6.016-6.016C86.848 637.376 87.296 634.624 87.68 631.744c-1.6-1.28-3.264-2.368-4.864-3.52C80.128 625.984 78.656 625.728 73.216 625.728 69.12 629.76 67.2 630.656 65.92 637.76zM615.36 635.52c-20.992 8.384-37.376 9.984-46.016 30.272-18.176 42.112 20.992 65.856 64.128 51.904 17.728 14.272 11.136 12.224 30.272 2.496-2.752-3.648-5.632-7.232-8.512-10.88C686.656 670.144 684.48 632.64 615.36 635.52zM640.768 688.64c-1.152 0.896-2.368 1.6-3.648 2.496-9.024-11.904-11.52-0.768-21.76 4.736 1.28 2.112 2.368 4.096 3.648 6.144-11.264 0.128-15.616-1.856-21.76-6.144-6.528-23.488 4.992-33.344 20.48-42.24C646.72 652.032 647.232 668.096 640.768 688.64zM385.408 709.248c14.912-12.032 15.744-49.856 21.824-70.272l0-1.28L379.392 637.696c-4.864 19.52-9.728 38.848-14.528 58.112-6.656 4.224-19.52 9.472-29.12 3.776-12.032-8.512 3.648-47.872 6.016-61.888L314.048 637.696c-3.072 17.344-18.688 51.904-9.664 67.904C314.688 727.872 369.216 722.368 385.408 709.248zM518.528 637.76 491.968 637.76c-3.648 15.36-7.296 30.72-10.88 46.144l0 2.368C472.192 670.144 463.296 654.016 454.4 637.76L421.76 637.76c-5.696 25.472-11.328 50.88-17.024 76.352l0 3.52 26.688 0c3.648-15.616 7.232-31.36 10.88-46.976l0-2.496 1.28 0c8.832 16.512 17.728 33.152 26.624 49.472l31.424 0C507.264 691.136 512.896 664.512 518.528 637.76zM534.272 637.76c-5.568 26.752-11.328 53.376-16.96 79.872l27.84 0c5.632-26.496 11.264-53.12 16.96-79.872L534.272 637.76zM785.984 637.76l-27.904 0c-4.736 19.52-9.6 38.848-14.528 58.112-6.528 4.224-19.52 9.472-28.992 3.776-12.096-8.512 3.648-47.872 6.016-61.888l-27.776 0c-3.136 17.344-18.752 51.904-9.728 67.904 10.368 22.272 64.768 16.768 81.152 3.648 14.848-12.032 15.744-49.856 21.76-70.272L785.984 637.76zM783.616 714.112l0 3.52 82.24 0c1.28-5.504 2.496-11.136 3.648-16.896l-54.4 0c0.768-4.864 1.6-9.6 2.368-14.528l51.968 0c1.28-5.248 2.496-10.496 3.648-15.616l0-1.344-50.88 0c0.896-4.736 1.728-9.6 2.496-14.528l55.744 0c0.768-5.504 1.6-11.264 2.368-17.024L800.64 637.696C794.88 663.232 789.248 688.64 783.616 714.112zM288.64 654.72c2.496-3.904 3.456-4.736 3.584-12.032-1.664-0.896-3.2-1.6-4.864-2.496-1.984-0.384-4.032-0.768-6.016-1.28-1.216 2.112-2.432 3.968-3.648 6.144-1.344 3.776-0.32 4.864 1.216 8.512C282.176 654.016 285.376 654.4 288.64 654.72zM303.104 737.152c4.352-2.24 6.208-2.752 8.512-7.232 0.32-3.264 0.768-6.528 1.216-9.728-2.432-1.984-4.8-3.968-7.296-6.016-2.432-0.384-4.8-0.896-7.232-1.28-2.432 2.496-4.8 4.736-7.296 7.232-2.368 5.76 0.192 10.24 2.496 14.528C296.704 735.488 299.904 736.256 303.104 737.152zM102.208 722.624c-1.984-0.512-3.968-0.896-6.016-1.28-1.6 1.984-3.2 3.968-4.864 6.144-2.688 5.888-0.128 9.856 4.864 12.032l7.296 0c2.048-1.984 3.968-3.968 6.016-6.016C108.608 726.4 107.52 724.992 102.208 722.624zM347.904 735.872c-2.432 2.368-4.8 4.864-7.296 7.232l0 8.512c3.968 2.24 5.312 3.392 12.16 3.648l1.28 0c2.944-4.096 6.272-6.656 3.648-13.248C355.072 737.6 353.664 737.024 347.904 735.872zM332.224 773.376C333.632 768 334.976 763.52 333.312 757.76c-0.704-2.112-1.536-4.096-2.368-6.144-5.952-4.096-9.344-6.4-20.544-6.144-3.2 2.496-6.464 4.864-9.664 7.36-0.832 2.368-1.6 4.864-2.432 7.104 0 9.28 1.728 13.632 7.232 17.024C314.624 786.24 325.12 779.264 332.224 773.376zM58.688 771.008C56.192 773.76 53.76 776.64 51.392 779.52c-0.384 3.648-0.832 7.232-1.216 10.88 9.984 8.896 12.8 6.848 27.84 4.736 2.432-3.904 3.264-4.096 3.648-10.752-3.648-4.096-7.296-8.128-10.88-12.096C66.688 771.776 62.656 771.392 58.688 771.008zM431.424 772.224c-2.432 2.752-4.864 5.632-7.296 8.384-0.384 2.88-0.832 5.632-1.216 8.512 2.816 2.496 5.696 4.864 8.512 7.232 3.2 0.512 6.464 0.896 9.6 1.28 2.048-2.496 4.032-4.736 6.144-7.232C447.552 786.752 448 783.104 448.32 779.52c-2.368-1.984-4.8-4.096-7.296-6.144C437.888 772.992 434.688 772.608 431.424 772.224zM344.256 816.896c3.072-3.968 6.848-8.512 3.648-15.616-2.816-5.248-5.12-6.144-13.312-6.144-1.984 2.496-4.032 4.864-6.016 7.232-3.904 8 1.152 13.504 8.448 14.528L344.256 816.896zM199.04 812.096l0-6.016c-0.384-1.28-0.832-2.496-1.216-3.776-2.816-0.384-5.632-0.768-8.448-1.152-1.664 1.6-3.2 3.264-4.864 4.864 0.384 2.752 0.832 5.632 1.216 8.512 3.648 0.768 7.296 1.472 10.88 2.24C197.376 815.36 198.208 813.888 199.04 812.096zM232.96 813.376c-0.832-1.984-1.664-4.096-2.496-6.144-3.264-0.256-6.464-0.768-9.664-1.152-0.832 1.152-1.6 2.368-2.432 3.648C217.984 812.48 217.6 815.36 217.216 818.24c1.664 1.152 3.2 2.368 4.864 3.52 2.432-0.384 4.8-0.768 7.232-1.152C230.528 818.24 231.744 815.744 232.96 813.376zM269.248 847.232c2.88-2.88 5.632-5.632 8.512-8.512 2.56-5.632 0.256-12.224-1.28-17.024-5.248-3.392-7.872-5.76-16.96-6.016-6.784 4.48-8.768 6.528-13.312 13.376 0.32 9.984 3.52 15.104 10.88 18.112L269.248 847.168zM407.232 820.608c-2.048 2.496-4.032 4.736-6.144 7.232-0.32 2.752-0.768 5.632-1.152 8.512 2.432 1.984 4.8 3.968 7.296 6.016 2.752 0.384 5.632 0.768 8.384 1.28 5.312-4.992 7.488-5.888 7.296-17.024-1.6-1.28-3.2-2.368-4.8-3.52C415.232 820.736 412.928 820.48 407.232 820.608zM225.664 840c-1.92-4.224 3.264-8.256 0-13.376-3.072-4.608-5.312-4.992-13.312-4.864-12.736 12.48-26.944 54.272 10.88 52.096C242.944 856.896 233.088 856.64 225.664 840zM495.552 832.768c-2.432 2.368-4.864 4.736-7.232 7.232 0.384 2.752 0.832 5.632 1.28 8.512 6.016 3.968 13.248 5.632 16.896-2.496 0.384-1.984 0.832-3.968 1.216-6.016C507.264 839.104 506.88 838.4 506.496 837.504 502.848 835.968 499.2 834.368 495.552 832.768zM33.216 836.352c-2.816 3.136-5.632 6.4-8.448 9.6-2.432 5.504-0.32 11.136 1.152 15.744 2.816 1.6 5.696 3.264 8.448 4.864 15.168 0.512 20.096-5.248 19.392-20.608-3.264-2.88-6.464-5.632-9.664-8.512C40.512 837.12 36.864 836.736 33.216 836.352zM322.496 854.528c2.048 0.384 4.032 0.896 6.08 1.28 2.432-2.496 4.8-4.864 7.232-7.232-0.64-9.856-3.712-12.352-14.528-12.096C316.672 842.112 313.152 850.368 322.496 854.528zM310.4 861.76c-4.928-3.008-7.232-4.736-15.808-4.736-4.928 3.968-7.744 5.76-10.88 12.032 0.32 6.016 0.896 7.872 3.648 11.008 3.2 5.632 7.68 6.4 17.024 6.016 2.432-2.88 4.8-5.76 7.232-8.512C314.048 872 312 866.112 310.4 861.76zM387.84 864.128c-2.432-0.256-4.8-0.768-7.232-1.152-2.432 2.368-4.8 4.736-7.296 7.232 0.384 2.752 0.832 5.632 1.216 8.384 4.544 3.264 4.928 4.736 13.312 4.864 0.832-0.384 1.664-0.768 2.368-1.152C394.496 876.096 396.032 867.968 387.84 864.128zM90.112 867.776c-3.264 3.648-4.864 4.864-6.016 10.88 8.32 14.272 28.416-3.008 13.312-9.6C94.912 868.608 92.544 868.224 90.112 867.776zM153.024 872.64c-1.984 1.28-4.032 2.496-6.016 3.648-0.448 3.776-0.832 7.232-1.28 10.88l0 1.28c8.192 6.528 20.928 7.488 20.544-8.384-2.368-2.112-4.8-4.096-7.232-6.144C157.12 873.344 155.008 873.152 153.024 872.64zM454.4 873.856c-1.6 1.984-3.264 3.968-4.864 6.144-2.688 5.888-0.128 9.856 4.864 12.032 3.84 1.6 5.44 0.896 8.448-1.152 6.72-4.096 5.952-12.736-1.216-15.744C459.264 874.624 456.896 874.24 454.4 873.856zM228.096 878.656c-1.664 1.6-3.264 3.264-4.864 4.864 0.832 3.264 1.6 6.528 2.432 9.728 3.2 0.384 6.464 0.768 9.664 1.152 2.496-3.968 3.52-4.736 3.648-12.032-1.664-0.896-3.264-1.6-4.864-2.368C232.128 879.488 230.08 879.104 228.096 878.656zM320.064 878.656c-2.816 3.776-5.632 7.36-8.448 11.008 0.32 2.368 0.768 4.736 1.216 7.232 2.496 2.752 4.864 5.632 7.232 8.512 5.952 1.024 8.96 0.256 14.528-1.28 3.136-5.12 4.928-7.872 4.864-17.024-2.816-2.368-5.696-4.736-8.512-7.104C327.296 879.488 323.712 879.104 320.064 878.656zM268.032 880c-5.952 3.136-9.088 3.264-12.096 9.6C252.992 896.128 256 903.104 258.304 907.776c2.88 1.152 5.696 2.368 8.512 3.648 11.392-0.256 14.528-4.224 18.176-12.032-0.832-4.608-1.664-9.024-2.368-13.376C277.696 883.968 272.832 881.856 268.032 880zM340.608 916.096c0.448 3.008 0.832 5.76 1.28 8.512 1.664 0.896 3.2 1.6 4.864 2.496l6.016 0c1.28-0.384 2.432-0.896 3.648-1.28l1.216-10.88c-3.2-1.6-6.528-3.264-9.728-4.864C345.472 912.256 343.104 914.24 340.608 916.096zM196.608 918.656c-2.816-0.384-5.696-0.896-8.512-1.28-1.536 2.112-3.2 4.096-4.864 6.144-0.32 2.752-0.704 5.632-1.152 8.512 2.368 1.6 4.8 3.264 7.232 4.864 3.776 1.472 5.504 0.768 8.448-1.344 1.664-1.472 3.2-3.136 4.864-4.736-0.384-3.136-0.832-6.528-1.216-9.6C199.872 920.256 198.208 919.488 196.608 918.656zM395.072 928.384c-3.456 3.648-4.864 4.352-6.016 10.88 0.384 1.28 0.832 2.368 1.152 3.648 3.84 2.496 7.424 4.992 13.376 2.368 1.216-0.384 2.432-0.896 3.648-1.28l0-10.88c-0.384-1.152-0.832-2.368-1.28-3.648C402.368 929.152 398.72 928.768 395.072 928.384zM559.744 937.984c-3.776 5.12-5.376 7.488-3.648 15.744 3.2 1.28 6.464 2.496 9.664 3.648 4.544-2.624 5.632-2.624 7.232-8.512 1.024-3.776-0.512-5.888-2.368-9.6C566.976 938.752 563.392 938.368 559.744 937.984z" p-id="1880" fill="#2c2c2c"></path></svg>